<svg width="283" height="283" viewBox="0 0 283 283" fill="none" xmlns="http://www.w3.org/2000/svg">
<g clip-path="url(#clip0_17_49)">
<circle cx="141.5" cy="141.5" r="141.5" fill="black"/>
<mask id="mask0_17_49" style="mask-type:alpha" maskUnits="userSpaceOnUse" x="0" y="0" width="283" height="283">
<circle cx="141.5" cy="141.5" r="141.5" fill="white"/>
</mask>
<g mask="url(#mask0_17_49)">
<path d="M-176.539 -179.844C-120.552 -195.689 -69.3232 -199.93 -24.0428 -192.342C6.56339 -188.051 35.2085 -174.769 58.265 -154.178C76.4788 -136.205 90.0977 -114.107 97.9691 -89.7531L99.7535 -84.6944C101.612 -79.1893 103.62 -73.7585 105.627 -68.2534C109.858 -57.2049 113.384 -45.8992 116.185 -34.4044C118.79 -23.4247 108.808 -12.0212 106.743 -0.927368C105.88 3.46349 104.877 7.29715 103.87 10.7758C103.803 11.008 103.718 11.2344 103.62 11.4556C102.002 15.13 101.245 19.1277 101.408 23.1429C101.576 27.2791 102.716 31.3175 104.735 34.9303C110.694 46.9725 118.029 58.2816 126.595 68.6305C127.785 70.1183 129.197 71.6062 130.61 73.1685C138.045 81.5006 145.695 92.9572 142.2 108.059C141.107 113.785 138.632 119.157 134.991 123.708C131.35 128.259 128.877 129.745 123.532 132.065L121.896 132.66C120.337 133.123 118.491 135.204 118.491 136.701C118.458 136.997 118.458 137.297 118.491 137.593C118.491 140.718 119.011 145.033 119.383 148.678C120.349 157.159 119.251 161.408 116.5 165.5C115.096 167.383 114.255 169.543 113.205 171.57C112.055 173.789 112.012 176.612 112.852 178.965C113.846 181.751 113.985 184.83 113.739 187.928C113.714 188.245 113.656 188.558 113.56 188.861C111.901 194.052 107.913 198.126 104.925 202.464C103.669 203.836 102.995 205.275 102.19 206.775C101.537 207.992 101.261 209.404 101.622 210.737C102.071 212.389 102.589 214.022 103.174 215.632C106.053 223.007 107.54 230.851 107.561 238.768C106.148 259.152 100.2 267.955 69.7153 274.353C51.8669 277.596 33.7013 283.555 15.5869 282.586C13.0667 282.586 10.218 282.586 7.76121 282.586C5.74558 282.586 3.91858 283.793 3.19144 285.673C0.594389 292.387 -1.40365 299.321 -2.77808 306.392C-3.6703 310.484 -4.56254 314.575 -5.60347 318.221C-9.1603 331.269 -15.4584 355.242 -17.9033 364.425C-18.489 366.625 -19.3125 369.676 -19.8857 371.88L-20.214 373.142C-21.0045 376.181 -24.3678 377.747 -27.2029 376.397L-240.781 274.678C-243.069 273.588 -244.18 270.957 -243.365 268.556L-242.383 265.662C-242.207 265.144 -242.052 264.63 -241.894 264.106C-239.91 257.518 -225.685 210.462 -237.954 178.212C-245.431 161.83 -254.39 146.167 -264.721 131.419C-285.316 99.8014 -307.622 64.0925 -310.373 29.2764C-313.793 -21.1624 -307.622 -142.647 -176.539 -179.844ZM-291.785 28.0117C-289.703 57.7691 -268.067 91.6181 -248.958 121.301C-237.946 137.064 -228.436 153.826 -220.555 171.368C-209.105 201.32 -216.084 239.724 -220.953 258.663C-221.559 261.023 -220.433 263.486 -218.231 264.53L-39.2189 349.417C-36.3926 350.758 -33.0453 349.204 -32.2531 346.178C-29.4175 335.347 -25.86 321.601 -23.2992 312.79C-22.3327 309.368 -21.5148 305.35 -20.6969 301.78C-18.7518 290.717 -15.2209 279.993 -10.2133 269.939C-7.16485 264.806 -2.25763 263.839 7.18509 263.839H15.8843C32.5517 264.804 49.2747 263.78 65.7002 260.789C97.8947 254.019 98.7126 241.446 99.01 237.355C98.7566 231.871 97.6011 226.467 95.5898 221.36C93.9202 217.246 92.8813 212.905 92.5074 208.482C92.4785 208.141 92.4883 207.798 92.5394 207.46C93.5451 200.805 96.8278 194.699 101.835 190.189C102.251 189.718 102.719 189.174 103.188 188.611C104.527 187.007 104.637 184.67 103.447 182.952C102.92 182.191 102.357 181.491 101.761 181.027L99.6176 179.097C97.6006 177.281 97.4011 174.187 99.1679 172.127L102.371 168.392C106.311 164.449 108.5 161.5 110.237 158.5C111.278 156 111.501 152.621 111.278 150.612C110.673 146.247 110.325 141.85 110.237 137.444C110.296 132.796 111.897 128.303 114.78 124.669C114.977 124.42 115.206 124.195 115.453 123.996C118.462 121.571 118.221 122.421 123.835 120.412C123.835 120.412 125.181 120.013 126.5 119C127.346 118.35 128.353 117.552 128.966 117.063C129.34 116.766 129.668 116.415 129.939 116.022C131.011 114.473 131.103 114.242 132 112C133 109.5 133.408 106.509 133.839 103.744C135.103 98.3879 133.212 91.6925 127.784 85.8154C126.149 84.03 124.513 82.3189 123.1 80.6078C113.689 69.1608 105.608 56.682 99.01 43.4111C95.9292 37.7588 94.12 31.5011 93.709 25.076C93.298 18.6509 94.2952 12.2136 96.6307 6.2144C97.523 3.08988 98.4895 -0.406628 99.233 -4.42387C100.862 -12.9273 100.634 -21.6827 98.5639 -30.0896C95.8227 -40.8043 92.4208 -51.3387 88.3776 -61.6324C86.2214 -67.2863 84.1396 -72.9402 82.2808 -78.6685C81.7603 -80.3052 81.1655 -81.8674 80.645 -83.4297C73.7136 -104.989 61.7322 -124.578 45.6995 -140.564C25.2237 -158.493 -0.00943565 -170.096 -26.9425 -173.967C-69.4719 -181.406 -118.024 -176.942 -171.26 -161.84C-285.316 -129.628 -295.725 -29.0481 -291.785 28.0117Z" fill="white"/>
</g>
</g>
<defs>
<clipPath id="clip0_17_49">
<rect width="283" height="283" fill="white"/>
</clipPath>
</defs>
</svg>
